<?xml version="1.0" encoding="UTF-8"?>
<svg width="151px" height="181px" viewBox="0 0 151 181" version="1.1" xmlns="http://www.w3.org/2000/svg" xmlns:xlink="http://www.w3.org/1999/xlink">
    <!-- Generator: Sketch 51.3 (57544) - http://www.bohemiancoding.com/sketch -->
    <title>checklist_report</title>
    <desc>Created with Sketch.</desc>
    <defs></defs>
    <g id="Reports" stroke="none" stroke-width="1" fill="none" fill-rule="evenodd">
        <g transform="translate(-825.000000, -246.000000)" id="Reports-card-Copy">
            <g transform="translate(707.000000, 128.000000)">
                <g id="checklist_report" transform="translate(119.000000, 118.000000)">
                    <path d="M-0.5,0.5 L118.261117,0.5 L149.5,31.7738261 L149.5,180.5 L-0.5,180.5 L-0.5,0.5 Z" stroke="#979797" fill="#FBFDFD" stroke-linecap="round" stroke-linejoin="round"></path>
                    <g id="Group-11" transform="translate(15.000000, 15.000000)" fill="#0DD4AE">
                        <path d="M23,98.3787879 C10.2974508,98.3787879 0,88.1356056 0,75.5 C0,62.8643944 10.2974508,52.6212121 23,52.6212121 C35.7025492,52.6212121 46,62.8643944 46,75.5 C46,88.1356056 35.7025492,98.3787879 23,98.3787879 Z M36.4084507,64.1449537 C36.1956171,63.9510485 35.9561829,63.8056218 35.6901408,63.7086693 C35.4240988,63.6117167 35.1580608,63.5632411 34.8920188,63.5632411 C34.6259768,63.5632411 34.3599387,63.6117167 34.0938967,63.7086693 C33.8278547,63.8056218 33.5884205,63.9510485 33.3755869,64.1449537 L19.0093897,77.3062016 L12.5446009,71.4163614 C12.3317673,71.2224562 12.105635,71.0770295 11.8661972,70.9800769 C11.6267594,70.8831243 11.3474194,70.8346488 11.028169,70.8346488 C10.762127,70.8346488 10.496089,70.8831243 10.2300469,70.9800769 C9.96400493,71.0770295 9.75117451,71.2224562 9.5915493,71.4163614 L6.55868545,74.1067822 C6.39906023,74.3006874 6.26604122,74.5188274 6.15962441,74.7612089 C6.05320761,75.0035903 6,75.2459682 6,75.4883496 C6,75.7307311 6.05320761,75.9731089 6.15962441,76.2154904 C6.26604122,76.4578719 6.39906023,76.6517741 6.55868545,76.797203 L17.4929577,86.7590315 C17.7057914,86.9529367 17.9452256,87.0983634 18.2112676,87.195316 C18.4773096,87.2922685 18.7433477,87.3407441 19.0093897,87.3407441 C19.2754317,87.3407441 19.5414697,87.2922685 19.8075117,87.195316 C20.0735538,87.0983634 20.312988,86.9529367 20.5258216,86.7590315 L39.3615023,69.5985095 C39.574336,69.4046043 39.7339588,69.1864642 39.8403756,68.9440828 C39.9467924,68.7017013 40,68.4593235 40,68.216942 C40,67.9745605 39.9467924,67.7321827 39.8403756,67.4898012 C39.7339588,67.2474198 39.574336,67.0535175 39.3615023,66.9080886 L36.4084507,64.1449537 Z" id="Combined-Shape"></path>
                        <path d="M23,45.7575758 C10.2974508,45.7575758 0,35.5143935 0,22.8787879 C0,10.2431822 10.2974508,0 23,0 C35.7025492,0 46,10.2431822 46,22.8787879 C46,35.5143935 35.7025492,45.7575758 23,45.7575758 Z M36.4084507,11.5237416 C36.1956171,11.3298364 35.9561829,11.1844097 35.6901408,11.0874571 C35.4240988,10.9905046 35.1580608,10.942029 34.8920188,10.942029 C34.6259768,10.942029 34.3599387,10.9905046 34.0938967,11.0874571 C33.8278547,11.1844097 33.5884205,11.3298364 33.3755869,11.5237416 L19.0093897,24.6849894 L12.5446009,18.7951492 C12.3317673,18.6012441 12.105635,18.4558174 11.8661972,18.3588648 C11.6267594,18.2619122 11.3474194,18.2134366 11.028169,18.2134366 C10.762127,18.2134366 10.496089,18.2619122 10.2300469,18.3588648 C9.96400493,18.4558174 9.75117451,18.6012441 9.5915493,18.7951492 L6.55868545,21.4855701 C6.39906023,21.6794752 6.26604122,21.8976153 6.15962441,22.1399968 C6.05320761,22.3823782 6,22.6247561 6,22.8671375 C6,23.109519 6.05320761,23.3518968 6.15962441,23.5942783 C6.26604122,23.8366598 6.39906023,24.030562 6.55868545,24.1759909 L17.4929577,34.1378194 C17.7057914,34.3317245 17.9452256,34.4771512 18.2112676,34.5741038 C18.4773096,34.6710564 18.7433477,34.719532 19.0093897,34.719532 C19.2754317,34.719532 19.5414697,34.6710564 19.8075117,34.5741038 C20.0735538,34.4771512 20.312988,34.3317245 20.5258216,34.1378194 L39.3615023,16.9772973 C39.574336,16.7833922 39.7339588,16.5652521 39.8403756,16.3228706 C39.9467924,16.0804892 40,15.8381113 40,15.5957299 C40,15.3533484 39.9467924,15.1109706 39.8403756,14.8685891 C39.7339588,14.6262076 39.574336,14.4323054 39.3615023,14.2868765 L36.4084507,11.5237416 Z" id="Combined-Shape"></path>
                        <path d="M23,151 C10.2974508,151 0,140.756818 0,128.121212 C0,115.485606 10.2974508,105.242424 23,105.242424 C35.7025492,105.242424 46,115.485606 46,128.121212 C46,140.756818 35.7025492,151 23,151 Z M36.4084507,116.766166 C36.1956171,116.572261 35.9561829,116.426834 35.6901408,116.329881 C35.4240988,116.232929 35.1580608,116.184453 34.8920188,116.184453 C34.6259768,116.184453 34.3599387,116.232929 34.0938967,116.329881 C33.8278547,116.426834 33.5884205,116.572261 33.3755869,116.766166 L19.0093897,129.927414 L12.5446009,124.037573 C12.3317673,123.843668 12.105635,123.698242 11.8661972,123.601289 C11.6267594,123.504336 11.3474194,123.455861 11.028169,123.455861 C10.762127,123.455861 10.496089,123.504336 10.2300469,123.601289 C9.96400493,123.698242 9.75117451,123.843668 9.5915493,124.037573 L6.55868545,126.727994 C6.39906023,126.921899 6.26604122,127.14004 6.15962441,127.382421 C6.05320761,127.624802 6,127.86718 6,128.109562 C6,128.351943 6.05320761,128.594321 6.15962441,128.836703 C6.26604122,129.079084 6.39906023,129.272986 6.55868545,129.418415 L17.4929577,139.380244 C17.7057914,139.574149 17.9452256,139.719575 18.2112676,139.816528 C18.4773096,139.913481 18.7433477,139.961956 19.0093897,139.961956 C19.2754317,139.961956 19.5414697,139.913481 19.8075117,139.816528 C20.0735538,139.719575 20.312988,139.574149 20.5258216,139.380244 L39.3615023,122.219722 C39.574336,122.025816 39.7339588,121.807676 39.8403756,121.565295 C39.9467924,121.322913 40,121.080536 40,120.838154 C40,120.595773 39.9467924,120.353395 39.8403756,120.111013 C39.7339588,119.868632 39.574336,119.67473 39.3615023,119.529301 L36.4084507,116.766166 Z" id="Combined-Shape"></path>
                    </g>
                    <path d="M118.5,1.20710678 L118.5,31.5 L148.792893,31.5 L118.5,1.20710678 Z" id="Rectangle-6" stroke="#979797" fill="#D8D8D8"></path>
                    <rect id="Rectangle-7" stroke="#979797" x="71.5" y="47.5" width="36" height="1"></rect>
                    <rect id="Rectangle-7" stroke="#979797" x="71.5" y="40.5" width="52" height="1"></rect>
                    <rect id="Rectangle-7" stroke="#979797" x="71.5" y="100.5" width="36" height="1"></rect>
                    <rect id="Rectangle-7" stroke="#979797" x="71.5" y="93.5" width="52" height="1"></rect>
                    <rect id="Rectangle-7" stroke="#979797" x="71.5" y="152.5" width="36" height="1"></rect>
                    <rect id="Rectangle-7" stroke="#979797" x="71.5" y="146.5" width="52" height="1"></rect>
                </g>
            </g>
        </g>
    </g>
</svg>