<?xml version="1.0" encoding="UTF-8"?>
<svg width="247px" height="176px" viewBox="0 0 247 176" version="1.1" xmlns="http://www.w3.org/2000/svg" xmlns:xlink="http://www.w3.org/1999/xlink">
    <!-- Generator: Sketch 51.3 (57544) - http://www.bohemiancoding.com/sketch -->
    <title>magnifier</title>
    <desc>Created with Sketch.</desc>
    <defs>
        <circle id="path-1" cx="68.5" cy="68.5" r="68.5"></circle>
    </defs>
    <g id="Reports" stroke="none" stroke-width="1" fill="none" fill-rule="evenodd">
        <g transform="translate(-391.000000, -254.000000)" id="magnifier">
            <g transform="translate(392.000000, 255.000000)">
                <g id="Group-9" transform="translate(1.000000, 1.000000)">
                    <mask id="mask-2" fill="white">
                        <use xlink:href="#path-1"></use>
                    </mask>
                    <g id="Oval-4"></g>
                    <path d="M95.3074266,51.7702936 C95.3074266,59.0518499 92.6661174,65.3338826 87.3834197,70.6165803 C82.100722,75.899278 75.8186893,78.5405872 68.537133,78.5405872 C61.1128011,78.5405872 54.795075,75.899278 49.5837651,70.6165803 C44.3724552,65.3338826 41.7668394,59.0518499 41.7668394,51.7702936 C41.7668394,44.3459617 44.3724552,38.0282356 49.5837651,32.8169257 C54.795075,27.6056159 61.1128011,25 68.537133,25 C75.8186893,25 82.100722,27.6056159 87.3834197,32.8169257 C92.6661174,38.0282356 95.3074266,44.3459617 95.3074266,51.7702936 Z M10.2849741,149 L9,131.010363 C10.5705317,125.727665 13.0690675,120.659207 16.4956822,115.804836 C20.0650725,110.807689 24.3125833,106.453099 29.238342,102.740933 C34.1641006,99.0287667 39.7679594,96.0305238 46.0500864,93.746114 C52.1894377,91.4617042 58.8284041,90.3195164 65.9671848,90.3195164 C72.9631898,90.3195164 79.3879961,91.3189307 85.2417962,93.3177893 C91.238372,95.1738723 96.5566838,97.7437947 101.196891,101.027634 C105.837099,104.311473 109.870449,108.237743 113.297064,112.806563 C116.723679,117.375383 119.436375,122.372454 121.435233,127.797927 L121.435233,149 L10.2849741,149 Z" id="" fill="#0DD4AE" mask="url(#mask-2)"></path>
                </g>
                <path d="M178.629117,69.9592921 L191.722135,69.9592921 C193.360714,69.9592921 194.696169,71.2740435 194.721769,72.9124229 L196.628019,194.912423 C196.653904,196.569075 195.331906,197.933041 193.675254,197.958926 C193.659632,197.95917 193.644008,197.959292 193.628385,197.959292 L176.722867,197.959292 C175.066013,197.959292 173.722867,196.616146 173.722867,194.959292 C173.722867,194.943668 173.722989,194.928045 173.723233,194.912423 L175.629483,72.9124229 C175.655083,71.2740435 176.990538,69.9592921 178.629117,69.9592921 Z" id="Rectangle-9" fill="#004168" transform="translate(185.175626, 133.959292) rotate(-60.000000) translate(-185.175626, -133.959292) "></path>
                <path d="M29.4666011,124.798161 C11.6586646,112.428063 0,91.8255448 0,68.5 C0,30.6684946 30.6684946,0 68.5,0 C84.8012231,0 99.7725163,5.69410663 111.533399,15.2018391 C129.341335,27.5719374 141,48.1744552 141,71.5 C141,109.331505 110.331505,140 72.5,140 C56.1987769,140 41.2274837,134.305893 29.4666011,124.798161 Z M29.4666011,124.798161 C40.5412074,132.491021 53.9940395,137 68.5,137 C106.331505,137 137,106.331505 137,68.5 C137,46.9697177 127.066903,27.7594345 111.533399,15.2018391 C100.458793,7.50897884 87.0059605,3 72.5,3 C34.6684946,3 4,33.6684946 4,71.5 C4,93.0302823 13.9330966,112.240566 29.4666011,124.798161 Z" id="Combined-Shape" stroke="#979797" fill="#D8D8D8"></path>
            </g>
        </g>
    </g>
</svg>