<?xml version="1.0" encoding="UTF-8"?>
<svg width="33px" height="23px" viewBox="0 0 33 23" version="1.1" xmlns="http://www.w3.org/2000/svg" xmlns:xlink="http://www.w3.org/1999/xlink">
    <!-- Generator: Sketch 51.3 (57544) - http://www.bohemiancoding.com/sketch -->
    <title>icon/media-cloud</title>
    <desc>Created with Sketch.</desc>
    <defs></defs>
    <g id="Media" stroke="none" stroke-width="1" fill="none" fill-rule="evenodd">
        <g id="Media-1" transform="translate(-353.000000, -201.000000)" fill="#026ECB">
            <g id="icon/media-cloud" transform="translate(353.000000, 201.000000)">
                <g id="cloud-icon-png-icon_38711">
                    <path d="M27.7657839,10.1043343 C28.055404,7.96423947 27.5263646,6.05237157 26.0666793,4.40988623 C24.9931541,3.20514756 23.6377321,2.44189697 22.0235827,2.13884159 C20.2124917,1.80211338 18.4940791,2.08272022 16.9108226,3.00311064 C15.3314276,3.92350105 14.281072,5.25544816 13.709555,6.96527914 C13.6670774,6.93908917 13.6284614,6.91664062 13.5975686,6.89419208 C10.7477068,4.86259859 6.72391824,6.49385966 6.22963327,9.88359022 C6.21032526,10.0070572 6.14467804,10.0033158 6.05199961,10.0070572 C4.09802934,10.0631786 2.43367916,11.4624713 2.11702785,13.3182179 C1.69225171,15.7912995 3.61532917,17.9837742 6.22191007,17.9949985 C7.80130501,17.9987399 9.37683836,17.9949985 10.9562333,17.9949985 C11.0180189,17.9949985 11.0798045,17.9949985 11.1570366,17.9949985 C11.1570366,18.6647134 11.1570366,19.3194627 11.1570366,19.9966605 C11.0991125,19.9966605 11.0411885,19.9966605 10.9871261,19.9966605 C9.36911515,19.9966605 7.7549658,19.9966605 6.13695484,19.9966605 C3.17124502,19.9929191 0.564664119,17.8453415 0.0858255537,15.0056003 C-0.427767423,11.9750465 1.40649321,9.13156391 4.44171185,8.23736346 C4.50735908,8.21865634 4.5730063,8.14382785 4.60003751,8.08396506 C5.4495898,6.14964861 6.9054135,4.86259859 8.98295502,4.25648783 C10.1761898,3.91227678 11.3810094,3.91601821 12.5858291,4.23029786 C12.6978155,4.26022926 12.7518779,4.24152213 12.8175251,4.1442451 C14.3312729,1.92558039 16.4358456,0.559960462 19.1505513,0.1222138 C24.0895394,-0.678451035 28.8277243,2.539174 29.7467854,7.30574877 C29.8356022,7.75846113 29.8626334,8.22239776 29.9089726,8.68259297 C29.9166958,8.77238716 29.9475886,8.82102568 30.0248207,8.86966419 C32.1602862,10.216577 33.1758874,12.1247035 32.9750841,14.5865608 C32.7704192,17.1344708 30.7508017,19.3194627 28.1635288,19.8470036 C27.7078599,19.9405392 27.2367445,19.9854363 26.7733524,19.9891777 C25.1900958,20.0078848 23.6068393,19.9966605 22.0235827,19.9966605 C21.9656587,19.9966605 21.9115963,19.9966605 21.8459491,19.9966605 C21.8459491,19.3232041 21.8459491,18.6684549 21.8459491,17.9949985 C21.9154579,17.9949985 21.9772435,17.9949985 22.0390291,17.9949985 C23.6763481,17.9949985 25.313667,18.017447 26.9471244,17.9837742 C29.0208043,17.9426185 30.6851545,16.4236002 30.9207122,14.4144552 C31.1485467,12.4876216 29.8549102,10.6580651 27.8970783,10.1380071 C27.8546007,10.1305242 27.8121231,10.1193 27.7657839,10.1043343 Z" id="Shape" fill-rule="nonzero"></path>
                    <path d="M17.5008378,17.590948 C17.5008378,17.6561173 17.5008378,17.7026668 17.5008378,17.7492163 C17.5008378,19.3784488 17.5008378,21.0076814 17.5008378,22.6338106 C17.5008378,22.9100043 17.415317,23 17.1499075,23 C16.3772712,23 15.6016859,23 14.8290496,23 C14.5842832,23 14.4958134,22.9037977 14.4958134,22.6493271 C14.4958134,21.0169913 14.4928644,19.3846554 14.4928644,17.7523196 C14.4928644,17.7026668 14.4928644,17.653014 14.4928644,17.590948 C14.4368335,17.590948 14.3925986,17.590948 14.3513127,17.590948 C13.6553502,17.590948 12.9593877,17.590948 12.2634252,17.590948 C12.1572615,17.590948 12.0628937,17.5754315 12.0186588,17.4575061 C11.9744239,17.342684 12.0127608,17.249585 12.0923836,17.1626926 C13.3368589,15.8096537 14.5813342,14.4535116 15.8258094,13.0973695 C15.9467182,12.9670309 16.0558309,12.9670309 16.1767397,13.1004728 C17.421215,14.4535116 18.6656902,15.8096537 19.9101655,17.1657959 C20.0045333,17.2682048 20.0251763,17.3799236 19.9691454,17.4823325 C19.9219615,17.5723282 19.8423387,17.590948 19.7538688,17.590948 C19.0549574,17.590948 18.3530969,17.590948 17.6541854,17.590948 C17.6040526,17.590948 17.5598177,17.590948 17.5008378,17.590948 Z" id="Shape" fill-rule="nonzero"></path>
                </g>
            </g>
        </g>
    </g>
</svg>