<?xml version="1.0" encoding="UTF-8"?>
<svg width="30px" height="25px" viewBox="0 0 30 25" version="1.1" xmlns="http://www.w3.org/2000/svg" xmlns:xlink="http://www.w3.org/1999/xlink">
    <!-- Generator: Sketch 51.3 (57544) - http://www.bohemiancoding.com/sketch -->
    <title>rs-rev</title>
    <desc>Created with Sketch.</desc>
    <defs></defs>
    <g id="Symbols" stroke="none" stroke-width="1" fill="none" fill-rule="evenodd">
        <g id="top-bar/mobile" transform="translate(-10.000000, -16.000000)">
            <g id="logo/rs-rev" transform="translate(10.000000, 16.000000)">
                <g id="Group-2">
                    <path d="M3.40754585,1.72024093 C3.40754585,0.812183684 2.67509215,0.0754964673 1.76945478,0.0754964673 C0.863742885,0.0754964673 0.130022356,0.812183684 0.130022356,1.72024093 C0.130022356,2.62799607 0.863742885,3.36460776 1.76945478,3.36460776 C2.67509215,3.36460776 3.40754585,2.62799607 3.40754585,1.72024093" id="Fill-1" fill="#78B01A"></path>
                    <path d="M13.6955954,1.72024093 C13.6955954,0.812183684 12.9618003,0.0754964673 12.0548216,0.0754964673 C11.1505256,0.0754964673 10.4167305,0.812183684 10.4167305,1.72024093 C10.4167305,2.62799607 11.1505256,3.36460776 12.0548216,3.36460776 C12.9618003,3.36460776 13.6955954,2.62799607 13.6955954,1.72024093" id="Fill-4" fill="#0082D3"></path>
                    <path d="M8.55124272,1.72024093 C8.55124272,0.812183684 7.81849094,0.0754964673 6.91344973,0.0754964673 C6.00781235,0.0754964673 5.27371923,0.812183684 5.27371923,1.72024093 C5.27371923,2.62799607 6.00781235,3.36460776 6.91344973,3.36460776 C7.81849094,3.36460776 8.55124272,2.62799607 8.55124272,1.72024093" id="Fill-7" fill="#D16740"></path>
                    <path d="M2.19214471,9.90900749 C2.19214471,9.37148412 1.90904454,9.12066002 1.41423402,9.12066002 L0,9.12066002 L0,5.2508241 L4.10126376,5.2508241 C5.69203485,5.2508241 6.50519333,5.93162157 6.50519333,7.4723658 L6.50519333,8.54733701 C6.50519333,9.22813448 6.43439966,9.69405856 6.43439966,9.69405856 L6.50519333,9.69405856 C7.31827729,7.07819207 9.47495065,5 12.2326995,5 C12.6216921,5 13.045858,5.07159929 13.045858,5.07159929 L13.045858,9.55070893 C13.045858,9.55070893 12.5861463,9.47910963 11.9500465,9.47910963 C10.0407784,9.47910963 7.84863368,10.589805 7.0354752,13.3131459 C6.78814446,14.2089678 6.6468552,15.2121887 6.6468552,16.287311 L6.6468552,23.5252591 L2.19214471,23.5252591 L2.19214471,9.90900749 Z" id="Fill-10" fill="#FFFFFF"></path>
                    <path d="M19.9283333,10.2816667 C19.9283333,9.01333333 21.4016667,8.56333333 22.6633333,8.56333333 C24.1766667,8.56333333 25.3616667,9.18 25.3616667,9.96666667 L25.3616667,11.5383333 L29.17,11.5383333 L29.17,8.98666667 C29.17,6.06166667 25.2566667,5 22.6283333,5 C19.1616667,5 15.665,6.64333333 15.665,10.3166667 C15.665,13.9316667 19.0183333,15.1833333 21.4716667,16.1 L21.9733333,16.2783333 C24.2933333,17.0966667 25.6066667,17.625 25.6066667,18.9283333 C25.6066667,20.2116667 24.0216667,20.7866667 22.4533333,20.7866667 C20.6416667,20.7866667 18.8083333,20.1733333 18.8083333,18.9983333 L18.8083333,17.4266667 L15,17.4266667 L15,19.7333333 C15,22.755 18.785,24.385 22.3466667,24.385 C26.9183333,24.385 29.87,22.175 29.87,18.7533333 C29.87,15.0466667 26.1816667,13.8166667 23.7433333,13.0033333 C21.4383333,12.21 19.9283333,11.5916667 19.9283333,10.2816667 Z" id="Fill-1" fill="#0383CE"></path>
                </g>
            </g>
        </g>
    </g>
</svg>