<?xml version="1.0" encoding="UTF-8"?>
<svg width="150px" height="22px" viewBox="0 0 150 22" version="1.1" xmlns="http://www.w3.org/2000/svg" xmlns:xlink="http://www.w3.org/1999/xlink">
    <!-- Generator: Sketch 51.3 (57544) - http://www.bohemiancoding.com/sketch -->
    <title>scout-logo</title>
    <desc>Created with Sketch.</desc>
    <defs></defs>
    <g id="Symbols" stroke="none" stroke-width="1" fill="none" fill-rule="evenodd">
        <g id="top-bar/desktop" transform="translate(-16.000000, -9.000000)">
            <g id="Top-bar">
                <g id="logo/scout-rev" transform="translate(16.000000, 9.000000)">
                    <path d="M88.704,13.40916 C86.97525,12.83796 85.84275,12.39276 85.84275,11.44956 C85.84275,10.53636 86.94775,10.21236 87.894,10.21236 C89.029,10.21236 89.91775,10.65636 89.91775,11.22276 L89.91775,12.35436 L92.774,12.35436 L92.774,10.51716 C92.774,8.41116 89.839,7.64676 87.86775,7.64676 C85.26775,7.64676 82.64525,8.82996 82.64525,11.47476 C82.64525,14.07756 85.16025,14.97876 87.00025,15.63876 L87.3765,15.76716 C89.1165,16.35636 90.1015,16.73676 90.1015,17.67516 C90.1015,18.59916 88.91275,19.01316 87.7365,19.01316 C86.37775,19.01316 85.00275,18.57156 85.00275,17.72556 L85.00275,16.59396 L82.1465,16.59396 L82.1465,18.25476 C82.1465,20.43036 84.98525,21.60396 87.6565,21.60396 C91.08525,21.60396 93.299,20.01276 93.299,17.54916 C93.299,14.88036 90.53275,13.99476 88.704,13.40916" id="Fill-1" fill="#0383CE"></path>
                    <path d="M106.046,17.39556 C105.51225,17.80356 104.09475,18.88716 102.09475,18.88716 C99.52725,18.88716 97.7335,17.12436 97.7335,14.59956 C97.7335,12.06636 99.42225,10.36356 101.93725,10.36356 C102.9785,10.36356 104.486,10.77636 104.486,11.52516 L104.486,12.70716 L107.36975,12.70716 L107.36975,10.84476 C107.36975,8.31516 103.76475,7.64556 101.8585,7.64556 C97.6685,7.64556 94.50975,10.65756 94.50975,14.64996 C94.50975,18.10596 97.0785,21.60396 101.98975,21.60396 C104.966,21.60396 106.9835,20.03916 107.52975,19.56036 L107.70725,19.40436 L106.45225,17.09196 L106.046,17.39556 Z" id="Fill-3" fill="#0383CE"></path>
                    <path d="M120.499125,14.60004 C120.499125,17.00364 118.630375,18.88764 116.242875,18.88764 C113.816625,18.88764 111.987875,17.04444 111.987875,14.60004 C111.987875,12.18444 113.816625,10.36284 116.242875,10.36284 C118.669125,10.36284 120.499125,12.18444 120.499125,14.60004 M116.242875,7.64604 C111.979125,7.64604 108.762875,10.63524 108.762875,14.60004 C108.762875,18.59364 111.979125,21.60444 116.242875,21.60444 C120.507875,21.60444 123.722875,18.59364 123.722875,14.60004 C123.722875,10.63524 120.507875,7.64604 116.242875,7.64604" id="Fill-5" fill="#0383CE"></path>
                    <path d="M138.632625,18.58236 L138.632625,7.94796 L133.228875,7.94796 L133.228875,10.43916 L135.461375,10.43916 L135.461375,14.12076 C135.461375,16.41396 133.967625,18.78636 131.467625,18.78636 C129.651375,18.78636 129.286375,17.68596 129.286375,15.91116 L129.286375,7.94796 L123.882625,7.94796 L123.882625,10.43916 L126.113875,10.43916 L126.113875,16.41516 C126.113875,19.85796 127.685125,21.60396 130.785125,21.60396 C133.215125,21.60396 134.743875,20.40036 135.540125,19.39236 L135.540125,19.59036 C135.540125,20.69436 136.247625,21.30156 137.532625,21.30156 L140.601375,21.30156 L140.601375,18.83676 L138.897625,18.83676 C138.701375,18.83676 138.632625,18.77076 138.632625,18.58236" id="Fill-8" fill="#0383CE"></path>
                    <path d="M149.388875,18.71268 C149.380125,18.71388 149.158875,18.73668 148.818875,18.73668 C147.668875,18.73668 146.296375,18.28068 146.296375,16.11228 L146.296375,10.43868 L149.472625,10.43868 L149.472625,7.94868 L146.296375,7.94868 L146.296375,4.44468 L143.176375,4.44468 L143.176375,7.94868 L140.892625,7.94868 L140.892625,10.43868 L143.123875,10.43868 L143.123875,16.33908 C143.123875,20.90988 146.886375,21.40308 148.503875,21.40308 C149.071375,21.40308 149.451375,21.35148 149.466375,21.34908 L149.735125,21.31308 L149.735125,18.67668 L149.388875,18.71268 Z" id="Fill-10" fill="#0383CE"></path>
                    <path d="M70.19425,12.9468 L75.843,12.9468 C75.793,11.4588 74.71925,10.434 73.38925,10.434 C71.728,10.434 70.55175,11.3856 70.19425,12.9468 Z M66.76925,14.5572 C66.76925,10.7268 69.478,8.0424 73.38925,8.0424 C77.12175,8.0424 79.16675,10.6536 79.16675,13.9476 C79.16675,14.3136 79.0905,15.0936 79.0905,15.0936 L70.09175,15.0936 C70.348,17.2908 72.03425,18.4368 74.003,18.4368 C76.09925,18.4368 77.658,17.046 77.658,17.046 L79.013,19.194 C79.013,19.194 77.01925,21.0732 73.773,21.0732 C69.453,21.0732 66.76925,18.096 66.76925,14.5572 Z M53.83425,20.7792 L63.95675,20.7792 C65.158,20.7792 65.66925,20.292 65.66925,19.1208 L65.66925,16.9248 L62.7305,16.9248 L62.7305,17.6076 C62.7305,17.9736 62.5255,18.144 62.168,18.144 L59.30425,18.144 C58.4605,18.144 58.078,18.2172 58.078,18.2172 L58.078,18.1692 C58.078,18.1692 58.58925,17.7048 59.17675,17.022 L65.18425,10.0188 L65.18425,8.3352 L55.62425,8.3352 C54.39675,8.3352 53.8855,8.8476 53.8855,9.9936 L53.8855,12.2148 L56.8255,12.2148 L56.8255,11.5068 C56.8255,11.166 57.02925,10.9704 57.388,10.9704 L59.73925,10.9704 C60.55675,10.9704 60.9405,10.9212 60.9405,10.9212 L60.9405,10.9704 C60.9405,10.9704 60.42925,11.4096 59.84175,12.1176 L53.83425,19.1208 L53.83425,20.7792 Z M47.7255,19.1208 L47.7255,11.5068 C47.7255,11.1408 47.5205,10.9704 47.163,10.9704 L46.1405,10.9704 L46.1405,8.3352 L49.233,8.3352 C50.43425,8.3352 50.9455,8.8476 50.9455,9.9936 L50.9455,17.6316 C50.9455,17.9736 51.1505,18.1692 51.508,18.1692 L52.5305,18.1692 L52.5305,20.7792 L49.438,20.7792 C48.23675,20.7792 47.7255,20.292 47.7255,19.1208 Z M39.81725,19.0518 L39.81725,3.3678 C39.81725,2.979 39.601,2.7978 39.2235,2.7978 L38.1435,2.7978 L38.1435,-0.0006 L41.40975,-0.0006 C42.6785,-0.0006 43.24475,0.5442 43.24475,1.7622 L43.24475,17.4714 C43.24475,17.8338 43.461,18.0414 43.8385,18.0414 L44.891,18.0414 L44.891,20.8134 L41.65225,20.8134 C40.35725,20.8134 39.81725,20.295 39.81725,19.0518 Z M27.863,17.046 C27.863,17.8764 28.50175,18.6564 29.83175,18.6564 C31.56925,18.6564 32.79675,16.8996 32.79675,15.3864 L32.79675,15.0936 L32.23425,15.0936 C30.54675,15.0936 27.863,15.3132 27.863,17.046 Z M24.5905,17.1924 C24.5905,13.2888 30.21425,12.9708 32.33675,12.9708 L32.7455,12.9708 L32.7455,12.8736 C32.7455,11.0928 32.00425,10.434 30.343,10.434 C29.75425,10.434 28.60425,10.5804 28.60425,11.2632 L28.60425,11.922 L25.588,11.922 L25.588,10.6044 C25.588,8.286 29.013,8.0424 30.368,8.0424 C34.71425,8.0424 35.99175,10.2132 35.99175,12.996 L35.99175,17.6316 C35.99175,17.9736 36.19675,18.1692 36.55425,18.1692 L37.57675,18.1692 L37.57675,20.7792 L34.663,20.7792 C33.4605,20.7792 33.0005,20.1456 33.0005,19.4136 C33.0005,19.0956 33.02675,18.876 33.02675,18.876 L32.9755,18.876 C32.9755,18.876 31.978,21.0732 29.03925,21.0732 C26.713,21.0732 24.5905,19.6812 24.5905,17.1924 Z M13.753,12.9468 L19.40175,12.9468 C19.3505,11.4588 18.27675,10.434 16.948,10.434 C15.28675,10.434 14.1105,11.3856 13.753,12.9468 Z M21.21675,17.046 L22.57175,19.194 C22.57175,19.194 20.578,21.0732 17.33175,21.0732 C13.01175,21.0732 10.32675,18.096 10.32675,14.5572 C10.32675,10.7268 13.03675,8.0424 16.948,8.0424 C20.6805,8.0424 22.7255,10.6536 22.7255,13.9476 C22.7255,14.3136 22.648,15.0936 22.648,15.0936 L13.6505,15.0936 C13.9055,17.2908 15.593,18.4368 17.56175,18.4368 C19.65675,18.4368 21.2155,17.0472 21.21675,17.046 Z M4.703,10.2132 L4.97175,10.7052 C5.69175,9.2448 7.103,8.1636 8.84425,8.1636 C9.1255,8.1636 9.433,8.2128 9.433,8.2128 L9.433,11.2632 C9.433,11.2632 9.1005,11.214 8.6405,11.214 C7.25925,11.214 5.67425,11.9712 5.08675,13.8252 C4.908,14.4348 4.8055,15.1188 4.8055,15.8508 L4.8055,20.7792 L1.58425,20.7792 L1.58425,11.5068 C1.58425,11.1408 1.3805,10.9704 1.023,10.9704 L0.0005,10.9704 L0.0005,8.3352 L2.9655,8.3352 C4.1155,8.3352 4.703,8.7984 4.703,9.8472 L4.703,10.2132 Z M4.97175,10.7052 L4.703,10.2132 L4.703,10.5804 C4.703,11.0436 4.65175,11.3604 4.65175,11.3604 L4.703,11.3604 C4.778,11.136 4.868,10.9164 4.97175,10.7052 Z" id="Fill-19" fill="#FFFFFF"></path>
                    <path d="M50.07875,3.94224 C50.07875,2.91024 49.26,2.07264 48.25,2.07264 C47.23875,2.07264 46.42,2.91024 46.42,3.94224 C46.42,4.97424 47.23875,5.81184 48.25,5.81184 C49.26,5.81184 50.07875,4.97424 50.07875,3.94224" id="Fill-13" fill="#78B01A"></path>
                    <path d="M65.432375,3.94224 C65.432375,2.91024 64.613625,2.07264 63.603625,2.07264 C62.592375,2.07264 61.773625,2.91024 61.773625,3.94224 C61.773625,4.97424 62.592375,5.81184 63.603625,5.81184 C64.613625,5.81184 65.432375,4.97424 65.432375,3.94224" id="Fill-15" fill="#0082D3"></path>
                    <path d="M57.8755,3.94224 C57.8755,2.91024 57.05675,2.07264 56.04675,2.07264 C55.0355,2.07264 54.21675,2.91024 54.21675,3.94224 C54.21675,4.97424 55.0355,5.81184 56.04675,5.81184 C57.05675,5.81184 57.8755,4.97424 57.8755,3.94224" id="Fill-17" fill="#D16740"></path>
                </g>
            </g>
        </g>
    </g>
</svg>