<?xml version="1.0" encoding="UTF-8"?>
<svg width="593px" height="90px" viewBox="0 0 593 90" version="1.1" xmlns="http://www.w3.org/2000/svg" xmlns:xlink="http://www.w3.org/1999/xlink">
    <!-- Generator: Sketch 51.3 (57544) - http://www.bohemiancoding.com/sketch -->
    <title>logo/scout-rev</title>
    <desc>Created with Sketch.</desc>
    <defs></defs>
    <g id="Login" stroke="none" stroke-width="1" fill="none" fill-rule="evenodd">
        <g transform="translate(-386.000000, -57.000000)" id="logo/scout-rev">
            <g transform="translate(386.000000, 57.000000)">
                <path d="M351.26784,55.312785 C344.42199,52.956585 339.93729,51.120135 339.93729,47.229435 C339.93729,43.462485 344.31309,42.125985 348.06024,42.125985 C352.55484,42.125985 356.07429,43.957485 356.07429,46.293885 L356.07429,50.961735 L367.38504,50.961735 L367.38504,43.383285 C367.38504,34.696035 355.76244,31.542885 347.95629,31.542885 C337.66029,31.542885 327.27519,36.423585 327.27519,47.333385 C327.27519,58.069935 337.23459,61.787385 344.52099,64.509885 L346.01094,65.039535 C352.90134,67.469985 356.80194,69.039135 356.80194,72.910035 C356.80194,76.721535 352.09449,78.429285 347.43654,78.429285 C342.05589,78.429285 336.61089,76.607685 336.61089,73.117935 L336.61089,68.450085 L325.30014,68.450085 L325.30014,75.300885 C325.30014,84.275235 336.54159,89.116335 347.11974,89.116335 C360.69759,89.116335 369.46404,82.552635 369.46404,72.390285 C369.46404,61.381485 358.50969,57.728385 351.26784,55.312785" id="Fill-1" fill="#0383CE"></path>
                <path d="M419.94216,71.756685 C417.82851,73.439685 412.21521,77.909535 404.29521,77.909535 C394.12791,77.909535 387.02466,70.637985 387.02466,60.223185 C387.02466,49.773735 393.71211,42.749685 403.67151,42.749685 C407.79486,42.749685 413.76456,44.452485 413.76456,47.541285 L413.76456,52.417035 L425.18421,52.417035 L425.18421,44.734635 C425.18421,34.300035 410.90841,31.537935 403.35966,31.537935 C386.76726,31.537935 374.25861,43.962435 374.25861,60.431085 C374.25861,74.687085 384.43086,89.116335 403.87941,89.116335 C415.66536,89.116335 423.65466,82.661535 425.81781,80.686485 L426.52071,80.042985 L421.55091,70.504335 L419.94216,71.756685 Z" id="Fill-3" fill="#0383CE"></path>
                <path d="M477.176535,60.225165 C477.176535,70.140015 469.776285,77.911515 460.321785,77.911515 C450.713835,77.911515 443.471985,70.308315 443.471985,60.225165 C443.471985,50.260815 450.713835,42.746715 460.321785,42.746715 C469.929735,42.746715 477.176535,50.260815 477.176535,60.225165 M460.321785,31.539915 C443.437335,31.539915 430.700985,43.870365 430.700985,60.225165 C430.700985,76.698765 443.437335,89.118315 460.321785,89.118315 C477.211185,89.118315 489.942585,76.698765 489.942585,60.225165 C489.942585,43.870365 477.211185,31.539915 460.321785,31.539915" id="Fill-5" fill="#0383CE"></path>
                <path d="M548.985195,76.652235 L548.985195,32.785335 L527.586345,32.785335 L527.586345,43.061535 L536.427045,43.061535 L536.427045,58.248135 C536.427045,67.707585 530.511795,77.493735 520.611795,77.493735 C513.419445,77.493735 511.974045,72.954585 511.974045,65.633535 L511.974045,32.785335 L490.575195,32.785335 L490.575195,43.061535 L499.410945,43.061535 L499.410945,67.712535 C499.410945,81.914085 505.633095,89.116335 517.909095,89.116335 C527.531895,89.116335 533.585745,84.151485 536.738895,79.993485 L536.738895,80.810235 C536.738895,85.364235 539.540595,87.868935 544.629195,87.868935 L556.781445,87.868935 L556.781445,77.701635 L550.034595,77.701635 C549.257445,77.701635 548.985195,77.429385 548.985195,76.652235" id="Fill-8" fill="#0383CE"></path>
                <path d="M591.579945,77.189805 C591.545295,77.194755 590.669145,77.288805 589.322745,77.288805 C584.768745,77.288805 579.333645,75.407805 579.333645,66.463155 L579.333645,43.059555 L591.911595,43.059555 L591.911595,32.788305 L579.333645,32.788305 L579.333645,18.334305 L566.978445,18.334305 L566.978445,32.788305 L557.934795,32.788305 L557.934795,43.059555 L566.770545,43.059555 L566.770545,67.398705 C566.770545,86.253255 581.670045,88.287705 588.075345,88.287705 C590.322645,88.287705 591.827445,88.074855 591.886845,88.064955 L592.951095,87.916455 L592.951095,77.041305 L591.579945,77.189805 Z" id="Fill-10" fill="#0383CE"></path>
                <path d="M277.96923,53.40555 L300.33828,53.40555 C300.14028,47.26755 295.88823,43.04025 290.62143,43.04025 C284.04288,43.04025 279.38493,46.9656 277.96923,53.40555 Z M264.40623,60.04845 C264.40623,44.24805 275.13288,33.1749 290.62143,33.1749 C305.40213,33.1749 313.50033,43.9461 313.50033,57.53385 C313.50033,59.0436 313.19838,62.2611 313.19838,62.2611 L277.56333,62.2611 C278.57808,71.32455 285.25563,76.0518 293.05188,76.0518 C301.35303,76.0518 307.52568,70.31475 307.52568,70.31475 L312.89148,79.17525 C312.89148,79.17525 304.99623,86.92695 292.14108,86.92695 C275.03388,86.92695 264.40623,74.646 264.40623,60.04845 Z M213.18363,85.7142 L253.26873,85.7142 C258.02568,85.7142 260.05023,83.7045 260.05023,78.8733 L260.05023,69.8148 L248.41278,69.8148 L248.41278,72.63135 C248.41278,74.1411 247.60098,74.844 246.18528,74.844 L234.84483,74.844 C231.50358,74.844 229.98888,75.14595 229.98888,75.14595 L229.98888,74.94795 C229.98888,74.94795 232.01343,73.0323 234.33993,70.21575 L258.12963,41.32755 L258.12963,34.3827 L220.27203,34.3827 C215.41113,34.3827 213.38658,36.49635 213.38658,41.2236 L213.38658,50.38605 L225.02898,50.38605 L225.02898,47.46555 C225.02898,46.05975 225.83583,45.2529 227.25648,45.2529 L236.56743,45.2529 C239.80473,45.2529 241.32438,45.04995 241.32438,45.04995 L241.32438,45.2529 C241.32438,45.2529 239.29983,47.0646 236.97333,49.9851 L213.18363,78.8733 L213.18363,85.7142 Z M188.99298,78.8733 L188.99298,47.46555 C188.99298,45.9558 188.18118,45.2529 186.76548,45.2529 L182.71638,45.2529 L182.71638,34.3827 L194.96268,34.3827 C199.71963,34.3827 201.74418,36.49635 201.74418,41.2236 L201.74418,72.73035 C201.74418,74.1411 202.55598,74.94795 203.97168,74.94795 L208.02078,74.94795 L208.02078,85.7142 L195.77448,85.7142 C191.01753,85.7142 188.99298,83.7045 188.99298,78.8733 Z M157.67631,78.588675 L157.67631,13.892175 C157.67631,12.288375 156.81996,11.540925 155.32506,11.540925 L151.04826,11.540925 L151.04826,-0.002475 L163.98261,-0.002475 C169.00686,-0.002475 171.24921,2.244825 171.24921,7.269075 L171.24921,72.069525 C171.24921,73.564425 172.10556,74.420775 173.60046,74.420775 L177.76836,74.420775 L177.76836,85.855275 L164.94291,85.855275 C159.81471,85.855275 157.67631,83.716875 157.67631,78.588675 Z M110.33748,70.31475 C110.33748,73.74015 112.86693,76.95765 118.13373,76.95765 C125.01423,76.95765 129.87513,69.71085 129.87513,63.4689 L129.87513,62.2611 L127.64763,62.2611 C120.96513,62.2611 110.33748,63.16695 110.33748,70.31475 Z M97.37838,70.91865 C97.37838,54.8163 119.64843,53.50455 128.05353,53.50455 L129.67218,53.50455 L129.67218,53.1036 C129.67218,45.7578 126.73683,43.04025 120.15828,43.04025 C117.82683,43.04025 113.27283,43.64415 113.27283,46.4607 L113.27283,49.17825 L101.32848,49.17825 L101.32848,43.74315 C101.32848,34.17975 114.89148,33.1749 120.25728,33.1749 C137.46843,33.1749 142.52733,42.12945 142.52733,53.6085 L142.52733,72.73035 C142.52733,74.1411 143.33913,74.94795 144.75483,74.94795 L148.80393,74.94795 L148.80393,85.7142 L137.26548,85.7142 C132.50358,85.7142 130.68198,83.1006 130.68198,80.0811 C130.68198,78.76935 130.78593,77.8635 130.78593,77.8635 L130.58298,77.8635 C130.58298,77.8635 126.63288,86.92695 114.99543,86.92695 C105.78348,86.92695 97.37838,81.18495 97.37838,70.91865 Z M54.46188,53.40555 L76.83093,53.40555 C76.62798,47.26755 72.37593,43.04025 67.11408,43.04025 C60.53553,43.04025 55.87758,46.9656 54.46188,53.40555 Z M84.01833,70.31475 L89.38413,79.17525 C89.38413,79.17525 81.48888,86.92695 68.63373,86.92695 C51.52653,86.92695 40.89393,74.646 40.89393,60.04845 C40.89393,44.24805 51.62553,33.1749 67.11408,33.1749 C81.89478,33.1749 89.99298,43.9461 89.99298,57.53385 C89.99298,59.0436 89.68608,62.2611 89.68608,62.2611 L54.05598,62.2611 C55.06578,71.32455 61.74828,76.0518 69.54453,76.0518 C77.84073,76.0518 84.01338,70.3197 84.01833,70.31475 Z M18.62388,42.12945 L19.68813,44.15895 C22.53933,38.1348 28.12788,33.67485 35.02323,33.67485 C36.13698,33.67485 37.35468,33.8778 37.35468,33.8778 L37.35468,46.4607 C37.35468,46.4607 36.03798,46.25775 34.21638,46.25775 C28.74663,46.25775 22.47003,49.3812 20.14353,57.02895 C19.43568,59.54355 19.02978,62.36505 19.02978,65.38455 L19.02978,85.7142 L6.27363,85.7142 L6.27363,47.46555 C6.27363,45.9558 5.46678,45.2529 4.05108,45.2529 L0.00198,45.2529 L0.00198,34.3827 L11.74338,34.3827 C16.29738,34.3827 18.62388,36.2934 18.62388,40.6197 L18.62388,42.12945 Z M19.68813,44.15895 L18.62388,42.12945 L18.62388,43.64415 C18.62388,45.55485 18.42093,46.86165 18.42093,46.86165 L18.62388,46.86165 C18.92088,45.936 19.27728,45.03015 19.68813,44.15895 Z" id="Fill-19" fill="#FFFFFF"></path>
                <path d="M198.31185,16.26174 C198.31185,12.00474 195.0696,8.54964 191.07,8.54964 C187.06545,8.54964 183.8232,12.00474 183.8232,16.26174 C183.8232,20.51874 187.06545,23.97384 191.07,23.97384 C195.0696,23.97384 198.31185,20.51874 198.31185,16.26174" id="Fill-13" fill="#78B01A"></path>
                <path d="M259.112205,16.26174 C259.112205,12.00474 255.869955,8.54964 251.870355,8.54964 C247.865805,8.54964 244.623555,12.00474 244.623555,16.26174 C244.623555,20.51874 247.865805,23.97384 251.870355,23.97384 C255.869955,23.97384 259.112205,20.51874 259.112205,16.26174" id="Fill-15" fill="#0082D3"></path>
                <path d="M229.18698,16.26174 C229.18698,12.00474 225.94473,8.54964 221.94513,8.54964 C217.94058,8.54964 214.69833,12.00474 214.69833,16.26174 C214.69833,20.51874 217.94058,23.97384 221.94513,23.97384 C225.94473,23.97384 229.18698,20.51874 229.18698,16.26174" id="Fill-17" fill="#D16740"></path>
            </g>
        </g>
    </g>
</svg>