<?xml version="1.0" encoding="UTF-8"?>
<svg width="416px" height="411px" viewBox="0 0 416 411" version="1.1" xmlns="http://www.w3.org/2000/svg" xmlns:xlink="http://www.w3.org/1999/xlink">
    <!-- Generator: Sketch 51.2 (57519) - http://www.bohemiancoding.com/sketch -->
    <title>Telescope</title>
    <desc>Created with Sketch.</desc>
    <defs></defs>
    <g id="Login" stroke="none" stroke-width="1" fill="none" fill-rule="evenodd">
        <g transform="translate(-25.000000, -312.000000)" fill="#E0E9EF" id="Telescope">
            <path d="M285.534185,463 L256,383.290244 L388.869852,331 L421,418.423171 L285.534185,463 Z M256.41185,464.239889 C246.8237,455.654986 233.75763,450.509418 220.677921,450.509418 C194.54578,450.509418 172.750811,469.398892 168.4,494.280332 L164.90844,496 C162.30341,489.134765 145.74578,445.350416 144,438.48518 L243.34578,399 L266,460.800554 L256.41185,464.239889 Z M219.993128,539 C199.804543,539 184,523.414965 184,503.493224 C184,483.571483 199.804543,468 219.993128,468 C240.195457,468 256,483.571483 256,503.493224 C256,522.547624 239.3159,539 219.993128,539 Z M91.0604216,505 L79,472.70266 L128.939578,454 L141,487.14867 L91.0604216,505 Z M76.190004,534.78303 C71.8062164,535.639662 67.436128,533.912801 66.5593705,530.431885 L45.5582878,473.962182 C43.8047727,470.481266 46.4350453,465.273489 49.9283761,464.40326 C55.175222,462.662802 58.6822521,467.013947 59.5590096,468.754405 L80.5737917,526.094338 C81.4368499,526.950969 81.4368499,533.042572 76.190004,534.78303 Z M402.143731,317.856886 C401.272302,315.277431 397.786584,310.131955 390.828766,312.697976 L241.188007,371.071584 C236.844477,372.791221 234.230189,377.950131 235.973047,382.235789 L235.973047,383.095607 L127.221388,425.159535 C122.877857,426.865737 120.249953,432.024647 121.992812,436.323739 L122.877857,439.749578 L71.5316058,458.638714 C61.9731152,444.035236 47.1724323,445.754872 41.0860429,448.334328 C28.9132642,453.479803 21.9554455,467.223463 26.2989762,480.093869 L49.7867204,535.028204 C59.3588271,555.636976 78.5030406,550.478066 81.1037126,549.618247 C87.203718,547.912045 100.261542,539.327296 97.633638,522.157797 L148.966273,504.12848 C148.966273,504.12848 150.709132,515.292685 161.152668,512.71323 L167.239057,510.993593 C169.853345,525.597071 179.425452,539.327296 192.46966,547.052227 L116.777852,711.008847 C115.048609,715.294504 116.777852,720.43998 121.134998,722.159616 C121.992812,723.019435 128.964246,724.739072 132.436348,717.873959 L208.999586,553.057521 C219.443122,555.636976 228.143799,553.917339 231.6159,553.057521 L308.179138,717.873959 C312.522669,724.739072 318.622675,723.019435 319.494104,722.159616 C323.837635,720.43998 325.580493,715.294504 323.837635,711.008847 L248.145826,547.052227 C263.804322,537.607659 274.247858,520.438161 274.247858,502.408844 C274.247858,493.824094 271.647186,485.239345 268.161469,478.374233 L273.376429,476.654596 C273.376429,477.514414 276.862146,485.239345 284.691394,482.673325 L435.203582,432.024647 C442.161401,430.305011 441.289971,423.439898 440.418542,420.860443 L402.143731,317.856886 Z"></path>
        </g>
    </g>
</svg>